<svg xmlns="http://www.w3.org/2000/svg" xmlns:xlink="http://www.w3.org/1999/xlink" width="61" height="61" viewBox="0 0 61 61">
  <defs>
    <filter id="Ellipse_2" x="0" y="0" width="61" height="61" filterUnits="userSpaceOnUse">
      <feOffset input="SourceAlpha"/>
      <feGaussianBlur stdDeviation="3" result="blur"/>
      <feFlood flood-opacity="0.161"/>
      <feComposite operator="in" in2="blur"/>
      <feComposite in="SourceGraphic"/>
    </filter>
    <clipPath id="clip-path">
      <rect id="Rectangle_365" data-name="Rectangle 365" width="18.263" height="18.261" fill="#b7b7b7"/>
    </clipPath>
  </defs>
  <g id="Group_5024" data-name="Group 5024" transform="translate(-808 -969)">
    <g transform="matrix(1, 0, 0, 1, 808, 969)" filter="url(#Ellipse_2)">
      <circle id="Ellipse_2-2" data-name="Ellipse 2" cx="21.5" cy="21.5" r="21.5" transform="translate(9 9)" fill="#fff"/>
    </g>
    <g id="Group_5023" data-name="Group 5023" transform="translate(829.369 990.37)">
      <g id="Group_5022" data-name="Group 5022" clip-path="url(#clip-path)">
        <path id="Path_3607" data-name="Path 3607" d="M205.829,47.9a2.282,2.282,0,1,0,2.285,2.294,2.287,2.287,0,0,0-2.285-2.294m.019,3.259a.977.977,0,1,1,.961-.982.981.981,0,0,1-.961.982" transform="translate(-192.462 -45.292)" fill="#b7b7b7"/>
        <path id="Path_3608" data-name="Path 3608" d="M18.261,3.417A3.368,3.368,0,0,0,14.852,0Q9.126,0,3.4,0a3.261,3.261,0,0,0-.667.065A3.368,3.368,0,0,0,0,3.407Q0,6.27,0,9.133,0,11.965,0,14.8a3.585,3.585,0,0,0,.064.729A3.37,3.37,0,0,0,3.425,18.26q5.595,0,11.188,0a5.069,5.069,0,0,0,.588-.032,3.36,3.36,0,0,0,3.059-3.4q0-5.706,0-11.411M1.305,7.235q0-1.874,0-3.749A2.075,2.075,0,0,1,3.477,1.305h11.31a2.072,2.072,0,0,1,2.171,2.16q0,4.269,0,8.538a.354.354,0,0,1-.02.2c-.078-.025-.117-.091-.167-.141q-1.328-1.324-2.652-2.65a.675.675,0,0,0-1.106.006c-.831.831-1.665,1.659-2.49,2.5-.117.118-.176.125-.3,0Q7.522,9.2,4.809,6.5a.683.683,0,0,0-1.135,0L1.5,8.668c-.052.051-.105.1-.194.185Zm11.9,9.721q-4.879,0-9.758,0a2.074,2.074,0,0,1-2.081-1.583,2.232,2.232,0,0,1-.062-.545q0-1.976,0-3.952a.364.364,0,0,1,.113-.286Q2.768,9.248,4.109,7.9c.112-.114.165-.1.268.006q4.448,4.456,8.9,8.9c.037.037.071.077.139.15Zm3.188-.662a2.067,2.067,0,0,1-1.022.6.211.211,0,0,1-.233-.064q-1.87-1.875-3.746-3.745c-.08-.079-.088-.121,0-.205q1.043-1.031,2.074-2.074c.084-.086.13-.076.208,0q1.6,1.6,3.2,3.2a.263.263,0,0,1,.088.215c-.005.129,0,.258,0,.449a2.1,2.1,0,0,1-.563,1.625" transform="translate(0 0)" fill="#b7b7b7"/>
        <path id="Path_3609" data-name="Path 3609" d="M205.829,47.9a2.282,2.282,0,1,0,2.285,2.294,2.287,2.287,0,0,0-2.285-2.294m.019,3.259a.977.977,0,1,1,.961-.982.981.981,0,0,1-.961.982" transform="translate(-192.462 -45.292)" fill="#b7b7b7"/>
        <path id="Path_3610" data-name="Path 3610" d="M205.829,47.9a2.282,2.282,0,1,0,2.285,2.294,2.287,2.287,0,0,0-2.285-2.294m.019,3.259a.977.977,0,1,1,.961-.982.981.981,0,0,1-.961.982" transform="translate(-192.462 -45.292)" fill="#b7b7b7"/>
      </g>
    </g>
  </g>
</svg>
