<svg xmlns="http://www.w3.org/2000/svg" width="41.424" height="47.342" viewBox="0 0 41.424 47.342">
  <path id="Icon_metro-attachment" data-name="Icon metro-attachment" d="M32.838,17.048l-3-3L14.819,29.06a6.37,6.37,0,0,0,9.009,9.008l18.02-18.017A10.617,10.617,0,1,0,26.833,5.038L7.913,23.956c-.013.014-.028.027-.04.039A14.807,14.807,0,0,0,28.815,44.934l.038-.041v0L41.769,31.982l-3-3L25.85,41.892c-.014.012-.026.026-.039.039A10.56,10.56,0,0,1,10.875,27l.041-.039,0,0L29.835,8.04a6.37,6.37,0,0,1,9.01,9.008L20.825,35.065a2.123,2.123,0,1,1-3-3L32.838,17.048Z" transform="translate(-3.535 -1.928)" fill="#b7b7b7"/>
</svg>
