<svg xmlns="http://www.w3.org/2000/svg" xmlns:xlink="http://www.w3.org/1999/xlink" width="53" height="53" viewBox="0 0 53 53">
  <defs>
    <filter id="Ellipse_2" x="0" y="0" width="53" height="53" filterUnits="userSpaceOnUse">
      <feOffset input="SourceAlpha"/>
      <feGaussianBlur stdDeviation="3" result="blur"/>
      <feFlood flood-opacity="0.161"/>
      <feComposite operator="in" in2="blur"/>
      <feComposite in="SourceGraphic"/>
    </filter>
  </defs>
  <g id="Group_4524" data-name="Group 4524" transform="translate(-351 -126)">
    <g transform="matrix(1, 0, 0, 1, 351, 126)" filter="url(#Ellipse_2)">
      <circle id="Ellipse_2-2" data-name="Ellipse 2" cx="17.5" cy="17.5" r="17.5" transform="translate(9 9)" fill="#fff"/>
    </g>
    <g id="Icon_feather-smile" data-name="Icon feather-smile" transform="translate(365.332 140.332)">
      <path id="Path_3611" data-name="Path 3611" d="M21.336,12.168A9.168,9.168,0,1,1,12.168,3,9.168,9.168,0,0,1,21.336,12.168Z" fill="none" stroke="#b7b7b7" stroke-linecap="round" stroke-linejoin="round" stroke-width="1.25"/>
      <path id="Path_3612" data-name="Path 3612" d="M12,21a4.95,4.95,0,0,0,3.667,1.834A4.95,4.95,0,0,0,19.335,21" transform="translate(-3.499 -6.998)" fill="none" stroke="#b7b7b7" stroke-linecap="round" stroke-linejoin="round" stroke-width="1.25"/>
      <path id="Path_3613" data-name="Path 3613" d="M13.5,13.5h.009" transform="translate(-4.082 -4.082)" fill="none" stroke="#b7b7b7" stroke-linecap="round" stroke-linejoin="round" stroke-width="1.25"/>
      <path id="Path_3614" data-name="Path 3614" d="M22.5,13.5h.009" transform="translate(-7.581 -4.082)" fill="none" stroke="#b7b7b7" stroke-linecap="round" stroke-linejoin="round" stroke-width="1.25"/>
    </g>
  </g>
</svg>
